<svg width="14" height="18" viewBox="0 0 14 18" fill="none" xmlns="http://www.w3.org/2000/svg">
<path d="M2.83301 0.666656C2.16997 0.666656 1.53408 0.930048 1.06524 1.39889C0.5964 1.86773 0.333008 2.50362 0.333008 3.16666V14.8333C0.333008 15.4964 0.5964 16.1322 1.06524 16.6011C1.53408 17.0699 2.16997 17.3333 2.83301 17.3333H11.1663C11.8294 17.3333 12.4653 17.0699 12.9341 16.6011C13.4029 16.1322 13.6663 15.4964 13.6663 14.8333V14C13.6663 13.5398 13.2932 13.1667 12.833 13.1667C12.3728 13.1667 11.9997 13.5398 11.9997 14V14.8333C11.9997 15.0543 11.9119 15.2663 11.7556 15.4226C11.5993 15.5789 11.3874 15.6667 11.1663 15.6667H2.83301C2.61199 15.6667 2.40003 15.5789 2.24375 15.4226C2.08747 15.2663 1.99967 15.0543 1.99967 14.8333V3.16666C1.99967 2.94564 2.08747 2.73368 2.24375 2.5774C2.40003 2.42112 2.61199 2.33332 2.83301 2.33332H11.1663C11.3874 2.33332 11.5993 2.42112 11.7556 2.5774C11.9119 2.73368 11.9997 2.94564 11.9997 3.16666V3.99999C11.9997 4.46023 12.3728 4.83332 12.833 4.83332C13.2932 4.83332 13.6663 4.46023 13.6663 3.99999V3.16666C13.6663 2.50361 13.4029 1.86773 12.9341 1.39889C12.4653 0.930049 11.8294 0.666656 11.1663 0.666656H2.83301Z" fill="#D55F5A"/>
<path d="M10.9223 5.91073C10.5968 5.5853 10.0692 5.5853 9.74375 5.91073C9.41831 6.23617 9.41831 6.76381 9.74375 7.08925L10.8212 8.16666H6.99967C6.53944 8.16666 6.16634 8.53975 6.16634 8.99999C6.16634 9.46023 6.53944 9.83332 6.99967 9.83332H10.8212L9.74375 10.9107C9.41831 11.2362 9.41831 11.7638 9.74375 12.0892C10.0692 12.4147 10.5968 12.4147 10.9223 12.0892L13.4223 9.58924C13.7477 9.26381 13.7477 8.73617 13.4223 8.41073L10.9223 5.91073Z" fill="#D55F5A"/>
</svg>
