<svg width="20" height="20" viewBox="0 0 20 20" fill="none" xmlns="http://www.w3.org/2000/svg">
<path d="M8.33301 7.50001C8.33301 7.01087 8.51545 6.69804 8.75497 6.49481C9.0126 6.27621 9.38581 6.14584 9.79134 6.14584C10.1969 6.14584 10.5701 6.27621 10.8277 6.49481C11.0672 6.69804 11.2497 7.01087 11.2497 7.50001C11.2497 7.86432 11.1638 8.06657 11.0641 8.21615C10.9478 8.39066 10.7947 8.52827 10.5358 8.76099L10.4839 8.80768C10.2175 9.04738 9.86715 9.37142 9.59998 9.84342C9.32465 10.3298 9.16634 10.9176 9.16634 11.6667C9.16634 12.1269 9.53944 12.5 9.99967 12.5C10.4599 12.5 10.833 12.1269 10.833 11.6667C10.833 11.1658 10.9351 10.8681 11.0504 10.6644C11.1739 10.4463 11.3443 10.2756 11.5988 10.0465C11.6217 10.0259 11.6459 10.0044 11.6711 9.98191C11.8988 9.77892 12.2107 9.50088 12.4509 9.14065C12.7418 8.70429 12.9163 8.17737 12.9163 7.50001C12.9163 6.53082 12.5259 5.7499 11.906 5.22396C11.3043 4.71339 10.5316 4.47918 9.79134 4.47918C9.05104 4.47918 8.27841 4.71339 7.67667 5.22396C7.05682 5.7499 6.66634 6.53082 6.66634 7.50001C6.66634 7.96025 7.03944 8.33334 7.49967 8.33334C7.95991 8.33334 8.33301 7.96025 8.33301 7.50001Z" fill="#434343"/>
<path d="M10.6246 15.5598C10.9342 15.2192 10.9091 14.6922 10.5686 14.3826C10.228 14.073 9.701 14.0981 9.39141 14.4386L9.38307 14.4478C9.07347 14.7883 9.09856 15.3153 9.4391 15.6249C9.77964 15.9345 10.3067 15.9095 10.6163 15.5689L10.6246 15.5598Z" fill="#434343"/>
<path fill-rule="evenodd" clip-rule="evenodd" d="M9.99967 0.833344C4.93694 0.833344 0.833008 4.93727 0.833008 10C0.833008 15.0627 4.93694 19.1667 9.99967 19.1667C15.0624 19.1667 19.1663 15.0627 19.1663 10C19.1663 4.93727 15.0624 0.833344 9.99967 0.833344ZM2.49967 10C2.49967 5.85775 5.85741 2.50001 9.99967 2.50001C14.1419 2.50001 17.4997 5.85775 17.4997 10C17.4997 14.1423 14.1419 17.5 9.99967 17.5C5.85741 17.5 2.49967 14.1423 2.49967 10Z" fill="#434343"/>
</svg>
