<svg width="97" height="27" viewBox="0 0 97 27" fill="none" xmlns="http://www.w3.org/2000/svg">
<path d="M2.86 26C2.26 26 1.792 25.832 1.456 25.496C1.12 25.16 0.952 24.692 0.952 24.092V2.384C0.952 1.76 1.108 1.292 1.42 0.979998C1.756 0.643998 2.224 0.475998 2.824 0.475998C3.424 0.475998 3.88 0.643998 4.192 0.979998C4.528 1.292 4.696 1.76 4.696 2.384V22.796H15.856C16.384 22.796 16.792 22.94 17.08 23.228C17.368 23.492 17.512 23.876 17.512 24.38C17.512 24.884 17.368 25.28 17.08 25.568C16.792 25.856 16.384 26 15.856 26H2.86ZM30.4953 26.324C28.0953 26.324 25.9953 25.796 24.1953 24.74C22.4193 23.66 21.0393 22.148 20.0553 20.204C19.0953 18.236 18.6153 15.932 18.6153 13.292C18.6153 11.3 18.8913 9.512 19.4433 7.928C19.9953 6.32 20.7873 4.952 21.8193 3.824C22.8513 2.672 24.0993 1.796 25.5633 1.196C27.0273 0.595999 28.6713 0.295998 30.4953 0.295998C32.9193 0.295998 35.0193 0.823999 36.7953 1.88C38.5713 2.936 39.9393 4.436 40.8993 6.38C41.8833 8.324 42.3753 10.616 42.3753 13.256C42.3753 15.248 42.0993 17.048 41.5473 18.656C40.9953 20.264 40.1913 21.644 39.1353 22.796C38.1033 23.948 36.8553 24.824 35.3913 25.424C33.9273 26.024 32.2953 26.324 30.4953 26.324ZM30.4953 23.084C32.1753 23.084 33.6033 22.7 34.7793 21.932C35.9793 21.164 36.8913 20.048 37.5153 18.584C38.1633 17.12 38.4873 15.356 38.4873 13.292C38.4873 10.196 37.7913 7.796 36.3993 6.092C35.0073 4.388 33.0393 3.536 30.4953 3.536C28.8153 3.536 27.3753 3.92 26.1753 4.688C24.9993 5.432 24.0873 6.536 23.4393 8C22.8153 9.464 22.5033 11.228 22.5033 13.292C22.5033 16.364 23.1993 18.764 24.5913 20.492C26.0073 22.22 27.9753 23.084 30.4953 23.084ZM59.2734 26.324C56.5134 26.324 54.1854 25.808 52.2894 24.776C50.3934 23.72 48.9534 22.22 47.9694 20.276C47.0094 18.332 46.5294 16.016 46.5294 13.328C46.5294 11.312 46.8054 9.512 47.3574 7.928C47.9334 6.32 48.7494 4.952 49.8054 3.824C50.8854 2.672 52.1934 1.796 53.7294 1.196C55.2894 0.595999 57.0534 0.295998 59.0214 0.295998C60.4614 0.295998 61.8774 0.487999 63.2694 0.872C64.6614 1.232 65.9334 1.832 67.0854 2.672C67.4214 2.912 67.6374 3.188 67.7334 3.5C67.8294 3.812 67.8294 4.136 67.7334 4.472C67.6614 4.784 67.5054 5.06 67.2654 5.3C67.0494 5.54 66.7734 5.684 66.4374 5.732C66.1254 5.78 65.7774 5.684 65.3934 5.444C64.4574 4.796 63.4734 4.328 62.4414 4.04C61.4094 3.728 60.2694 3.572 59.0214 3.572C57.1494 3.572 55.5654 3.956 54.2694 4.724C52.9974 5.492 52.0374 6.608 51.3894 8.072C50.7414 9.512 50.4174 11.264 50.4174 13.328C50.4174 16.52 51.1734 18.944 52.6854 20.6C54.1974 22.256 56.4414 23.084 59.4174 23.084C60.4974 23.084 61.5534 22.988 62.5854 22.796C63.6414 22.58 64.6494 22.28 65.6094 21.896L64.8534 23.768V15.38H60.2094C59.7294 15.38 59.3454 15.26 59.0574 15.02C58.7934 14.756 58.6614 14.396 58.6614 13.94C58.6614 13.484 58.7934 13.148 59.0574 12.932C59.3454 12.692 59.7294 12.572 60.2094 12.572H66.4374C66.9414 12.572 67.3254 12.704 67.5894 12.968C67.8534 13.232 67.9854 13.616 67.9854 14.12V23.192C67.9854 23.624 67.9014 23.996 67.7334 24.308C67.5894 24.596 67.3374 24.812 66.9774 24.956C65.9454 25.364 64.7334 25.7 63.3414 25.964C61.9494 26.204 60.5934 26.324 59.2734 26.324ZM84.7414 26.324C82.3414 26.324 80.2414 25.796 78.4414 24.74C76.6654 23.66 75.2854 22.148 74.3014 20.204C73.3414 18.236 72.8614 15.932 72.8614 13.292C72.8614 11.3 73.1374 9.512 73.6894 7.928C74.2414 6.32 75.0334 4.952 76.0654 3.824C77.0974 2.672 78.3454 1.796 79.8094 1.196C81.2734 0.595999 82.9174 0.295998 84.7414 0.295998C87.1654 0.295998 89.2654 0.823999 91.0414 1.88C92.8174 2.936 94.1854 4.436 95.1454 6.38C96.1294 8.324 96.6214 10.616 96.6214 13.256C96.6214 15.248 96.3454 17.048 95.7934 18.656C95.2414 20.264 94.4374 21.644 93.3814 22.796C92.3494 23.948 91.1014 24.824 89.6374 25.424C88.1734 26.024 86.5414 26.324 84.7414 26.324ZM84.7414 23.084C86.4214 23.084 87.8494 22.7 89.0254 21.932C90.2254 21.164 91.1374 20.048 91.7614 18.584C92.4094 17.12 92.7334 15.356 92.7334 13.292C92.7334 10.196 92.0374 7.796 90.6454 6.092C89.2534 4.388 87.2854 3.536 84.7414 3.536C83.0614 3.536 81.6214 3.92 80.4214 4.688C79.2454 5.432 78.3334 6.536 77.6854 8C77.0614 9.464 76.7494 11.228 76.7494 13.292C76.7494 16.364 77.4454 18.764 78.8374 20.492C80.2534 22.22 82.2214 23.084 84.7414 23.084Z" fill="#434343"/>
</svg>
