<svg width="10" height="13" viewBox="0 0 10 13" fill="none" xmlns="http://www.w3.org/2000/svg">
<path d="M1.15162 5.83333H8.84962C9.42429 5.83333 9.72962 5.15333 9.34762 4.72333L5.49895 0.39333C5.43653 0.322867 5.35986 0.266453 5.27401 0.227818C5.18816 0.189182 5.0951 0.169205 5.00095 0.169205C4.90681 0.169205 4.81375 0.189182 4.7279 0.227818C4.64205 0.266453 4.56538 0.322867 4.50295 0.39333L0.652955 4.72333C0.270955 5.15333 0.576288 5.83333 1.15162 5.83333ZM4.50229 12.606C4.56472 12.6765 4.64139 12.7329 4.72723 12.7715C4.81308 12.8101 4.90615 12.8301 5.00029 12.8301C5.09443 12.8301 5.1875 12.8101 5.27334 12.7715C5.35919 12.7329 5.43586 12.6765 5.49829 12.606L9.34695 8.276C9.72962 7.84666 9.42429 7.16666 8.84895 7.16666H1.15162C0.576955 7.16666 0.271622 7.84666 0.653622 8.27666L4.50229 12.606Z" fill="#9E9E9E"/>
</svg>
