<svg width="19" height="19" viewBox="0 0 19 19" fill="none" xmlns="http://www.w3.org/2000/svg">
<path d="M18.4258 8.51687L1.42576 0.516871C1.2546 0.435887 1.06394 0.405218 0.87601 0.428439C0.688081 0.451659 0.510622 0.527812 0.364315 0.648023C0.218008 0.768234 0.108879 0.927551 0.0496467 1.10741C-0.00958555 1.28726 -0.0164815 1.48025 0.0297628 1.66387L1.96876 9.42187L0.0297628 17.1799C-0.0169142 17.3636 -0.0103198 17.5567 0.0487745 17.7368C0.107869 17.9169 0.21702 18.0764 0.363459 18.1968C0.509899 18.3171 0.687572 18.3932 0.875696 18.4163C1.06382 18.4393 1.25461 18.4083 1.42576 18.3269L18.4258 10.3269C18.5976 10.2461 18.7428 10.1181 18.8446 9.95787C18.9463 9.79761 19.0004 9.6117 19.0004 9.42187C19.0004 9.23204 18.9463 9.04613 18.8446 8.88587C18.7428 8.72561 18.5976 8.59763 18.4258 8.51687ZM2.48076 15.6189L3.31976 12.2619L8.99976 9.42187L3.31976 6.58187L2.48076 3.22487L15.6508 9.42187L2.48076 15.6189Z" fill="#434343"/>
</svg>
