<svg width="20" height="21" viewBox="0 0 20 21" fill="none" xmlns="http://www.w3.org/2000/svg">
<path d="M5 8.42188H15V12.4219H5V8.42188Z" fill="#D55F5A"/>
<path d="M10 0.421875C4.486 0.421875 0 4.90788 0 10.4219C0 15.9359 4.486 20.4219 10 20.4219C15.514 20.4219 20 15.9359 20 10.4219C20 4.90788 15.514 0.421875 10 0.421875ZM10 18.4219C5.589 18.4219 2 14.8329 2 10.4219C2 6.01088 5.589 2.42188 10 2.42188C14.411 2.42188 18 6.01088 18 10.4219C18 14.8329 14.411 18.4219 10 18.4219Z" fill="#D55F5A"/>
</svg>
