<svg width="18" height="19" viewBox="0 0 18 19" fill="none" xmlns="http://www.w3.org/2000/svg">
<path fill-rule="evenodd" clip-rule="evenodd" d="M5.66699 1.66666C5.66699 1.20642 5.2939 0.833328 4.83366 0.833328C4.37342 0.833328 4.00032 1.20642 4.00032 1.66666V2.49999H3.16699C2.50395 2.49999 1.86807 2.76339 1.39923 3.23223C0.930384 3.70107 0.666992 4.33695 0.666992 4.99999V15.8333C0.666992 16.4964 0.930384 17.1323 1.39923 17.6011C1.86807 18.0699 2.50395 18.3333 3.16699 18.3333H14.8337C15.4967 18.3333 16.1326 18.0699 16.6014 17.6011C17.0703 17.1323 17.3337 16.4964 17.3337 15.8333V4.99999C17.3337 4.33695 17.0703 3.70107 16.6014 3.23223C16.1326 2.76339 15.4967 2.49999 14.8337 2.49999H14.417C13.9568 2.49999 13.5837 2.87309 13.5837 3.33333C13.5837 3.79357 13.9568 4.16666 14.417 4.16666H14.8337C15.0547 4.16666 15.2666 4.25446 15.4229 4.41074C15.5792 4.56702 15.667 4.77898 15.667 4.99999V7.49999H2.33366V4.99999C2.33366 4.77898 2.42146 4.56702 2.57774 4.41074C2.73402 4.25446 2.94598 4.16666 3.16699 4.16666H4.00032V4.99999C4.00032 5.46023 4.37342 5.83333 4.83366 5.83333C5.2939 5.83333 5.66699 5.46023 5.66699 4.99999V1.66666ZM2.57774 16.4226C2.42146 16.2663 2.33366 16.0543 2.33366 15.8333V9.16666H15.667V15.8333C15.667 16.0543 15.5792 16.2663 15.4229 16.4226C15.2666 16.5789 15.0547 16.6667 14.8337 16.6667H3.16699C2.94598 16.6667 2.73402 16.5789 2.57774 16.4226Z" fill="#434343"/>
<path d="M12.3337 1.66666C12.3337 1.20642 11.9606 0.833328 11.5003 0.833328C11.0401 0.833328 10.667 1.20642 10.667 1.66666V2.49999H7.75032C7.29009 2.49999 6.91699 2.87309 6.91699 3.33333C6.91699 3.79357 7.29009 4.16666 7.75032 4.16666H10.667V4.99999C10.667 5.46023 11.0401 5.83333 11.5003 5.83333C11.9606 5.83333 12.3337 5.46023 12.3337 4.99999V1.66666Z" fill="#434343"/>
</svg>
