<svg width="18" height="17" viewBox="0 0 18 17" fill="none" xmlns="http://www.w3.org/2000/svg">
<path fill-rule="evenodd" clip-rule="evenodd" d="M9.00032 0.231445C8.23894 0.231445 7.49211 0.440069 6.84095 0.834657L2.67428 3.35966C2.06157 3.73095 1.55493 4.25397 1.20331 4.87819C0.8517 5.50241 0.66698 6.20675 0.666992 6.92318V12.1665C0.666992 13.2716 1.10598 14.3314 1.88738 15.1128C2.66878 15.8942 3.72859 16.3332 4.83366 16.3332H13.167C14.2721 16.3332 15.3319 15.8942 16.1133 15.1128C16.8947 14.3314 17.3337 13.2716 17.3337 12.1665V6.92235C17.3335 6.20608 17.1487 5.50176 16.7971 4.87774C16.4455 4.25372 15.9389 3.73087 15.3264 3.35966L11.1597 0.834664C10.5086 0.440076 9.76171 0.231445 9.00032 0.231445ZM7.70471 2.26003C8.0954 2.02328 8.5435 1.89811 9.00032 1.89811C9.45715 1.89811 9.90524 2.02328 10.2959 2.26003L14.4626 4.78503C14.8301 5.00776 15.1341 5.32147 15.345 5.69589C15.556 6.07025 15.6669 6.49266 15.667 6.92235V12.1665C15.667 12.8296 15.4036 13.4654 14.9348 13.9343C14.4659 14.4031 13.83 14.6665 13.167 14.6665H12.3337V12.1665C12.3337 11.2825 11.9825 10.4346 11.3573 9.80949C10.7322 9.18437 9.88438 8.83318 9.00032 8.83318C8.11627 8.83318 7.26842 9.18437 6.6433 9.80949C6.01818 10.4346 5.66699 11.2825 5.66699 12.1665V14.6665H4.83366C4.17062 14.6665 3.53473 14.4031 3.06589 13.9343C2.59705 13.4654 2.33366 12.8296 2.33366 12.1665V6.92318C2.33365 6.49332 2.44448 6.07069 2.65545 5.69616C2.86642 5.32163 3.1704 5.00782 3.53803 4.78504L7.70471 2.26003ZM10.1788 10.988C10.4914 11.3006 10.667 11.7245 10.667 12.1665V14.6665H7.33366V12.1665C7.33366 11.7245 7.50925 11.3006 7.82181 10.988C8.13437 10.6754 8.5583 10.4999 9.00032 10.4999C9.44235 10.4999 9.86628 10.6754 10.1788 10.988Z" fill="#434343"/>
</svg>
