<svg width="18" height="18" viewBox="0 0 18 18" fill="none" xmlns="http://www.w3.org/2000/svg">
<path fill-rule="evenodd" clip-rule="evenodd" d="M12.0003 0.666672C11.6467 0.666672 11.3076 0.807147 11.0575 1.0572C10.8075 1.30725 10.667 1.64638 10.667 2V5.66667H7.00032C6.64671 5.66667 6.30757 5.80714 6.05752 6.05719C5.80746 6.30724 5.66699 6.64638 5.66699 7V11.5H2.00033C1.6467 11.5 1.30757 11.6405 1.05752 11.8905C0.807467 12.1406 0.666992 12.4797 0.666992 12.8333V16C0.666992 16.3536 0.807467 16.6928 1.05752 16.9428C1.30757 17.1929 1.6467 17.3333 2.00033 17.3333H16.0003C16.3539 17.3333 16.6931 17.1929 16.9431 16.9428C17.1932 16.6928 17.3337 16.3536 17.3337 16V2C17.3337 1.64638 17.1932 1.30725 16.9431 1.0572C16.6931 0.807147 16.3539 0.666672 16.0003 0.666672H12.0003ZM7.33366 7.33334H10.667V15.6667H7.33366V7.33334ZM15.667 15.6667H12.3337V2.33334H15.667V15.6667ZM5.66699 13.1667V15.6667H2.33366V13.1667H5.66699Z" fill="#434343"/>
</svg>
